<svg width="104" height="31" viewBox="0 0 104 31" fill="none" xmlns="http://www.w3.org/2000/svg">
<path d="M0.0227273 0.727272H6.09091L12.5 16.3636H12.7727L19.1818 0.727272H25.25V24H20.4773V8.85227H20.2841L14.2614 23.8864H11.0114L4.98864 8.79545H4.79545V24H0.0227273V0.727272ZM33.5994 18.9773L33.6108 13.1705H34.3153L39.9062 6.54545H45.4631L37.9517 15.3182H36.804L33.5994 18.9773ZM29.2131 24V0.727272H34.054V24H29.2131ZM40.1222 24L34.9858 16.3977L38.2131 12.9773L45.7926 24H40.1222ZM55.0739 24.3409C53.2784 24.3409 51.733 23.9773 50.4375 23.25C49.1496 22.5152 48.1572 21.4773 47.4602 20.1364C46.7633 18.7879 46.4148 17.1932 46.4148 15.3523C46.4148 13.5568 46.7633 11.9811 47.4602 10.625C48.1572 9.26894 49.1383 8.21212 50.4034 7.45454C51.6761 6.69697 53.1686 6.31818 54.8807 6.31818C56.0322 6.31818 57.1042 6.50379 58.0966 6.875C59.0966 7.23864 59.9678 7.78788 60.7102 8.52273C61.4602 9.25758 62.0436 10.1818 62.4602 11.2955C62.8769 12.4015 63.0852 13.697 63.0852 15.1818V16.5114H48.3466V13.5114H58.5284C58.5284 12.8144 58.3769 12.197 58.0739 11.6591C57.7708 11.1212 57.3504 10.7008 56.8125 10.3977C56.2822 10.0871 55.6648 9.93182 54.9602 9.93182C54.2254 9.93182 53.5739 10.1023 53.0057 10.4432C52.4451 10.7765 52.0057 11.2273 51.6875 11.7955C51.3693 12.3561 51.2064 12.9811 51.1989 13.6705V16.5227C51.1989 17.3864 51.358 18.1326 51.6761 18.7614C52.0019 19.3902 52.4602 19.875 53.0511 20.2159C53.642 20.5568 54.3428 20.7273 55.1534 20.7273C55.6913 20.7273 56.1837 20.6515 56.6307 20.5C57.0777 20.3485 57.4602 20.1212 57.7784 19.8182C58.0966 19.5152 58.339 19.1439 58.5057 18.7045L62.983 19C62.7557 20.0758 62.2898 21.0152 61.5852 21.8182C60.8883 22.6136 59.9867 23.2348 58.8807 23.6818C57.7822 24.1212 56.5133 24.3409 55.0739 24.3409ZM77.4375 16.5682V6.54545H82.2784V24H77.6307V20.8295H77.4489C77.0549 21.8523 76.3996 22.6742 75.483 23.2955C74.5739 23.9167 73.464 24.2273 72.1534 24.2273C70.9867 24.2273 69.9602 23.9621 69.0739 23.4318C68.1875 22.9015 67.4943 22.1477 66.9943 21.1705C66.5019 20.1932 66.2519 19.0227 66.2443 17.6591V6.54545H71.0852V16.7955C71.0928 17.8258 71.3693 18.6402 71.9148 19.2386C72.4602 19.8371 73.1913 20.1364 74.108 20.1364C74.6913 20.1364 75.2367 20.0038 75.7443 19.7386C76.2519 19.4659 76.661 19.0644 76.9716 18.5341C77.2898 18.0038 77.4451 17.3485 77.4375 16.5682ZM86.1506 30.5455V6.54545H90.9233V9.47727H91.1392C91.3513 9.00758 91.6581 8.5303 92.0597 8.04545C92.4688 7.55303 92.9991 7.14394 93.6506 6.81818C94.3097 6.48485 95.1278 6.31818 96.1051 6.31818C97.3778 6.31818 98.5521 6.65152 99.6278 7.31818C100.704 7.97727 101.563 8.97348 102.207 10.3068C102.851 11.6326 103.173 13.2955 103.173 15.2955C103.173 17.2424 102.859 18.8864 102.23 20.2273C101.609 21.5606 100.76 22.572 99.6847 23.2614C98.6165 23.9432 97.4195 24.2841 96.0938 24.2841C95.1544 24.2841 94.3551 24.1288 93.696 23.8182C93.0445 23.5076 92.5104 23.1174 92.0938 22.6477C91.6771 22.1705 91.3589 21.6894 91.1392 21.2045H90.9915V30.5455H86.1506ZM90.8892 15.2727C90.8892 16.3106 91.0331 17.2159 91.321 17.9886C91.6089 18.7614 92.0256 19.3636 92.571 19.7955C93.1165 20.2197 93.7794 20.4318 94.5597 20.4318C95.3475 20.4318 96.0142 20.2159 96.5597 19.7841C97.1051 19.3447 97.518 18.7386 97.7983 17.9659C98.0862 17.1856 98.2301 16.2879 98.2301 15.2727C98.2301 14.2652 98.09 13.3788 97.8097 12.6136C97.5294 11.8485 97.1165 11.25 96.571 10.8182C96.0256 10.3864 95.3551 10.1705 94.5597 10.1705C93.7718 10.1705 93.1051 10.3788 92.5597 10.7955C92.0218 11.2121 91.6089 11.803 91.321 12.5682C91.0331 13.3333 90.8892 14.2348 90.8892 15.2727Z" fill="#FAB3B6"/>
</svg>
